<?xml version="1.0" standalone="no"?>
<!DOCTYPE svg PUBLIC "-//W3C//DTD SVG 1.1//EN" "http://www.w3.org/Graphics/SVG/1.1/DTD/svg11.dtd" >
<svg xmlns="http://www.w3.org/2000/svg">
<metadata>Generated by IcoMoon</metadata>
<defs>
<font id="icomoon" horiz-adv-x="1024">
<font-face units-per-em="1024" ascent="960" descent="-64" />
<missing-glyph horiz-adv-x="1024" />
<glyph unicode="&#x20;" horiz-adv-x="512" d="" />
<glyph unicode="&#xe900;" glyph-name="angle-l" d="M828.16 56.32l-390.827 391.68 390.827 391.68-120.32 120.32-512-512 512-512z" />
<glyph unicode="&#xe901;" glyph-name="angle-r" d="M195.84 56.32l390.827 391.68-390.827 391.68 120.32 120.32 512-512-512-512z" />
<glyph unicode="&#xe902;" glyph-name="angle-d" d="M903.68 764.16l-391.68-390.827-391.68 390.827-120.32-120.32 512-512 512 512z" />
<glyph unicode="&#xe903;" glyph-name="angle-u" d="M120.32 131.84l391.68 390.827 391.68-390.827 120.32 120.32-512 512-512-512z" />
<glyph unicode="&#xe904;" glyph-name="nav" d="M0 64v109.715h1024v-109.715h-1024zM0 502.857h1024v-109.715h-1024v109.715zM0 832h1024v-109.715h-1024v109.715z" />
<glyph unicode="&#xe905;" glyph-name="close" d="M56.844-63.34c-31.4 0.029-56.845 25.491-56.845 56.895 0 15.699 6.358 29.912 16.64 40.206l910.311 910.311c10.133 9.461 23.781 15.27 38.786 15.27 31.422 0 56.895-25.473 56.895-56.895 0-15.005-5.809-28.654-15.301-38.819l0.031 0.033-910.312-910.312c-10.287-10.299-24.5-16.675-40.203-16.689h-0.003zM967.156-63.34c-15.706 0.014-29.919 6.39-40.205 16.689l-910.313 910.313c-9.461 10.133-15.27 23.781-15.27 38.786 0 31.422 25.473 56.895 56.895 56.895 15.005 0 28.654-5.809 38.819-15.301l-0.033 0.031 910.312-910.312c10.281-10.293 16.639-24.506 16.639-40.206 0-31.404-25.445-56.866-56.842-56.895h-0.003z" />
<glyph unicode="&#xe906;" glyph-name="exit" d="M688.699 386.178c-21.747 0-39.376-17.629-39.376-39.376v0-253.192h-570.57v708.782h609.946c21.747 0 39.376 17.629 39.376 39.376s-17.629 39.376-39.376 39.376v0h-649.323c-21.747 0-39.376-17.629-39.376-39.376v0-787.535c0-21.747 17.629-39.376 39.376-39.376v0h649.323c21.747 0 39.376 17.629 39.376 39.376v0 292.57c0 21.747-17.629 39.376-39.376 39.376v0zM1023.796 598.419c-0.294 14.032-7.883 26.227-19.117 32.977l-0.178 0.099-138.213 149.632c-7.257 7.879-17.624 12.797-29.139 12.797-21.856 0-39.573-17.717-39.573-39.573 0-10.34 3.966-19.755 10.46-26.804l-0.025 0.028 83.085-89.385h-365.81c-89.57-2.815-161.109-76.099-161.109-166.093 0-1.55 0.021-3.095 0.063-4.635l-0.005 0.227v-120.493c0-21.747 17.629-39.376 39.376-39.376s39.376 17.629 39.376 39.376v0 120.099c-0.073 1.337-0.114 2.901-0.114 4.474 0 46.518 36.335 84.55 82.173 87.262l0.239 0.011h371.717l-88.992-96.079c-6.631-7.097-10.702-16.657-10.702-27.17 0-22.003 17.838-39.841 39.841-39.841 11.491 0 21.846 4.865 29.118 12.647l0.021 0.023 147.269 157.507c6.473 6.995 10.442 16.388 10.442 26.708 0 1.411-0.074 2.804-0.219 4.177l0.014-0.171s0 0 0 0z" />
<glyph unicode="&#xe907;" glyph-name="user-c" d="M512 960c282.77 0 512-229.23 512-512s-229.23-512-512-512c-282.77 0-512 229.23-512 512v0c0 282.77 229.23 512 512 512v0zM512 364.207c-115.849-0.028-218.986-54.428-285.285-139.069l-0.597-0.792c67.031-85.403 170.262-139.761 286.19-139.761s219.159 54.358 285.596 138.976l0.594 0.785c-66.913 85.454-170.086 139.861-285.967 139.861-0.187 0-0.374 0-0.56 0h0.029zM512 786.252c-86.090 0-155.88-69.79-155.88-155.88s69.79-155.88 155.88-155.88c86.090 0 155.88 69.79 155.88 155.88v0c0 86.090-69.79 155.88-155.88 155.88v0z" />
<glyph unicode="&#xe908;" glyph-name="load-c" d="M729.316 665.316c-55.41 55.531-132.023 89.885-216.66 89.885-0.23 0-0.461 0-0.691-0.001h0.036v-307.2l-217.316-217.316c56.331-61.137 136.791-99.302 226.164-99.302 169.662 0 307.2 137.538 307.2 307.2 0 89.374-38.166 169.833-99.088 225.97l-0.214 0.195zM512 960c-282.77 0-512-229.23-512-512s229.23-512 512-512c282.77 0 512 229.23 512 512v0c0 282.77-229.23 512-512 512v0zM512 38.4c-226.216 0-409.6 183.384-409.6 409.6s183.384 409.6 409.6 409.6c226.216 0 409.6-183.384 409.6-409.6v0c0-226.216-183.384-409.6-409.6-409.6v0z" />
<glyph unicode="&#xe909;" glyph-name="check-c" d="M512 960c-282.77 0-512-229.23-512-512s229.23-512 512-512c282.77 0 512 229.23 512 512v0c0 282.77-229.23 512-512 512v0zM475.591 237.511l-203.093 203.093 80.782 80.782 122.311-122.88 227.556 227.556 80.213-80.213z" />
<glyph unicode="&#xe90a;" glyph-name="close-c" d="M512 960c-282.77 0-512-229.23-512-512s229.23-512 512-512c282.77 0 512 229.23 512 512v0c0 282.77-229.23 512-512 512v0zM753.209 287.004l-80.213-80.213-160.996 160.996-160.996-160.996-80.213 80.213 160.996 160.996-160.996 160.996 80.213 80.213 160.996-160.996 160.996 160.996 80.213-80.213-160.996-160.996z" />
<glyph unicode="&#xe90b;" glyph-name="quest-c" d="M512 960c-282.624 0-512-229.376-512-512s229.376-512 512-512 512 229.376 512 512-229.376 512-512 512zM563.2 89.6h-102.4v102.4h102.4v-102.4zM669.184 486.4l-46.080-47.104c-36.864-37.376-59.904-68.096-59.904-144.896h-102.4v25.6c0 56.32 23.040 107.52 59.904 144.896l63.488 64.512c18.944 18.432 30.208 44.032 30.208 72.192 0 56.32-46.080 102.4-102.4 102.4s-102.4-46.080-102.4-102.4h-102.4c0 113.152 91.648 204.8 204.8 204.8s204.8-91.648 204.8-204.8c0-45.056-18.432-86.016-47.616-115.2z" />
<glyph unicode="&#xe90c;" glyph-name="home" d="M822.926 5.816h-202.007c-25.706 0-46.546 20.839-46.546 46.546v0 153.6h-124.742v-153.6c0-25.706-20.839-46.546-46.546-46.546v0h-202.473c-25.706 0-46.546 20.839-46.546 46.546v0 399.361h-107.52c-25.706 0-46.546 20.839-46.546 46.546 0 15.175 7.262 28.655 18.501 37.152l0.117 0.085 465.455 345.368c7.682 5.811 17.396 9.309 27.927 9.309s20.245-3.498 28.044-9.394l-0.117 0.085 465.455-344.902c11.356-8.582 18.618-22.061 18.618-37.237 0-25.706-20.839-46.546-46.546-46.546v0h-107.986v-399.826c0-25.706-20.839-46.546-46.546-46.546v0zM666.999 98.906h109.382v399.361c0 25.706 20.839 46.546 46.546 46.546v0h14.894l-325.818 240.64-325.818-240.64h13.498c25.706 0 46.546-20.839 46.546-46.546v0-399.361h110.313v153.6c0 25.706 20.839 46.546 46.546 46.546v0h217.367c25.706 0 46.546-20.839 46.546-46.546v0z" />
<glyph unicode="&#xe90d;" glyph-name="info" d="M921.6 960h-819.2c-28.277 0-51.2-22.923-51.2-51.2v0-921.6c0-28.277 22.923-51.2 51.2-51.2v0h819.2c28.277 0 51.2 22.923 51.2 51.2v0 921.6c0 28.277-22.923 51.2-51.2 51.2v0zM870.4 38.4h-716.8v819.2h716.8zM358.4 601.6h307.2c28.277 0 51.2 22.923 51.2 51.2s-22.923 51.2-51.2 51.2v0h-307.2c-28.277 0-51.2-22.923-51.2-51.2s22.923-51.2 51.2-51.2v0zM358.4 396.8h307.2c28.277 0 51.2 22.923 51.2 51.2s-22.923 51.2-51.2 51.2v0h-307.2c-28.277 0-51.2-22.923-51.2-51.2s22.923-51.2 51.2-51.2v0zM358.4 192h307.2c28.277 0 51.2 22.923 51.2 51.2s-22.923 51.2-51.2 51.2v0h-307.2c-28.277 0-51.2-22.923-51.2-51.2s22.923-51.2 51.2-51.2v0z" />
<glyph unicode="&#xe90e;" glyph-name="statistics" d="M967.112 960.001h-303.218c-31.419 0-56.889-25.47-56.889-56.889v0-232.676h-246.898c-31.419 0-56.889-25.47-56.889-56.889v0-155.307h-246.329c-31.419 0-56.889-25.47-56.889-56.889v0-408.462c0-31.419 25.47-56.889 56.889-56.889v0h910.221c31.419 0 56.889 25.47 56.889 56.889v0 910.221c0 31.419-25.47 56.889-56.889 56.889v0zM113.779 344.463h189.44v-294.684h-189.44zM416.997 401.352v155.307h189.44v-506.88h-189.44zM910.223 49.779h-189.44v796.443h189.44z" />
<glyph unicode="&#xe90f;" glyph-name="about" d="M512 960c-282.77 0-512-229.23-512-512s229.23-512 512-512c282.77 0 512 229.23 512 512v0c0 282.77-229.23 512-512 512v0zM512 38.4c-226.216 0-409.6 183.384-409.6 409.6s183.384 409.6 409.6 409.6c226.216 0 409.6-183.384 409.6-409.6v0c0-226.216-183.384-409.6-409.6-409.6v0zM512 545.792c-28.277 0-51.2-22.923-51.2-51.2v0-287.744c0-28.277 22.923-51.2 51.2-51.2s51.2 22.923 51.2 51.2v0 287.744c0 28.277-22.923 51.2-51.2 51.2v0zM475.648 726.016c-4.48-4.587-8.112-10.025-10.627-16.046l-0.125-0.338c-2.465-5.896-3.957-12.739-4.095-19.913l-0.001-0.055c0.061-13.987 5.72-26.64 14.851-35.843l-0.003 0.003c4.702-4.722 10.317-8.531 16.558-11.139l0.338-0.125c5.725-2.595 12.414-4.108 19.456-4.108s13.731 1.512 19.76 4.23l-0.304-0.122c18.709 7.833 31.635 25.945 31.744 47.090v0.014c0.001 0.088 0.001 0.192 0.001 0.296 0 14.065-5.671 26.806-14.852 36.059l0.003-0.003c-9.28 9.354-22.14 15.145-36.352 15.145s-27.072-5.791-36.349-15.142l-0.003-0.003z" />
<glyph unicode="&#xe910;" glyph-name="filter" d="M0 704v139.637h1024v-139.637h-1024zM884.364 378.182h-744.728v139.637h744.728v-139.637zM651.637 52.363h-279.273v139.637h279.273v-139.637z" />
<glyph unicode="&#xe911;" glyph-name="redact" d="M828.385 538.405l-225.982 225.982-602.403-602.403v-225.982h225.982zM1006.354 717.013c10.902 10.892 17.646 25.944 17.646 42.572s-6.744 31.68-17.645 42.571l-0.001 0.001-140.838 140.198c-10.892 10.902-25.944 17.646-42.572 17.646s-31.68-6.744-42.571-17.645l-117.793-117.793 225.982-225.982z" />
<glyph unicode="&#xe912;" glyph-name="remove" d="M170.496 49.664c0.289-62.658 51.006-113.375 113.636-113.664h455.196c62.658 0.289 113.375 51.006 113.664 113.636v683.036h-682.496zM310.784 454.656l80.384 80.896 120.832-120.832 120.832 120.832 80.384-80.384-120.832-120.832 120.832-120.832-80.384-80.384-120.832 120.832-120.832-120.832-80.384 80.384 120.832 120.832zM711.168 903.168l-56.832 56.832h-284.672l-56.832-56.832h-199.168v-113.664h796.672v113.664z" />
<glyph unicode="&#xe913;" glyph-name="arr-d" d="M0 675.556h1024l-512-455.111-512 455.111z" />
<glyph unicode="&#xe914;" glyph-name="arr-u" d="M0 220.445h1024l-512 455.111-512-455.111z" />
<glyph unicode="&#xe915;" glyph-name="date" d="M870.4 857.6h-51.2v102.4h-102.4v-102.4h-409.6v102.4h-102.4v-102.4h-51.2c-56.554 0-102.4-45.846-102.4-102.4v0-716.8c0-56.554 45.846-102.4 102.4-102.4v0h716.8c56.554 0 102.4 45.846 102.4 102.4v0 716.8c0 56.554-45.846 102.4-102.4 102.4v0zM870.4 38.4h-716.8v563.2h716.8z" />
</font>
</defs>
</svg>
